<?xml version="1.0" encoding="utf-8"?>
<!-- Generator: Adobe Illustrator 14.0.0, SVG Export Plug-In . SVG Version: 6.00 Build 43363)  -->
<!DOCTYPE svg PUBLIC "-//W3C//DTD SVG 1.1//EN" "http://www.w3.org/Graphics/SVG/1.1/DTD/svg11.dtd">
<svg version="1.1" id="Vrstva_1" xmlns="http://www.w3.org/2000/svg" xmlns:xlink="http://www.w3.org/1999/xlink" x="0px" y="0px"
	 width="15.986px" height="15.986px" viewBox="-0.02 0 15.986 15.986" enable-background="new -0.02 0 15.986 15.986"
	 xml:space="preserve">
<g>
	<path fill="#009EE0" d="M13.971,0H1.979C0.878,0-0.02,0.898-0.02,1.999v11.989c0,1.1,0.898,1.998,1.999,1.998h11.989
		c1.1,0,1.998-0.898,1.998-1.998V1.999C15.967,0.898,15.069,0,13.971,0z"/>
	<g>
		<g>
			<path fill="#FFFFFF" d="M6.733,4.327c0,0.165-0.135,0.3-0.3,0.3h-3.9c-0.165,0-0.3-0.135-0.3-0.3V2.655
				c0-0.165,0.135-0.3,0.3-0.3h3.9c0.165,0,0.3,0.135,0.3,0.3V4.327z"/>
		</g>
		<g>
			<path fill="#FFFFFF" d="M6.733,8.829c0,0.165-0.135,0.3-0.3,0.3h-3.9c-0.165,0-0.3-0.135-0.3-0.3V7.158
				c0-0.165,0.135-0.3,0.3-0.3h3.9c0.165,0,0.3,0.135,0.3,0.3V8.829z"/>
		</g>
		<g>
			<path fill="#FFFFFF" d="M6.733,13.331c0,0.165-0.135,0.3-0.3,0.3h-3.9c-0.165,0-0.3-0.135-0.3-0.3v-1.67
				c0-0.165,0.135-0.3,0.3-0.3h3.9c0.165,0,0.3,0.135,0.3,0.3V13.331z"/>
		</g>
		<g>
			<g>
				<g>
					<path fill="#FFFFFF" d="M13.713,4.327c0,0.165-0.135,0.3-0.3,0.3h-3.9c-0.165,0-0.3-0.135-0.3-0.3V2.655
						c0-0.165,0.135-0.3,0.3-0.3h3.9c0.165,0,0.3,0.135,0.3,0.3V4.327z"/>
				</g>
				<g>
					<path fill="#FFFFFF" d="M13.713,8.829c0,0.165-0.135,0.3-0.3,0.3h-3.9c-0.165,0-0.3-0.135-0.3-0.3V7.158
						c0-0.165,0.135-0.3,0.3-0.3h3.9c0.165,0,0.3,0.135,0.3,0.3V8.829z"/>
				</g>
				<g>
					<path fill="#FFFFFF" d="M13.713,13.331c0,0.165-0.135,0.3-0.3,0.3h-3.9c-0.165,0-0.3-0.135-0.3-0.3v-1.67
						c0-0.165,0.135-0.3,0.3-0.3h3.9c0.165,0,0.3,0.135,0.3,0.3V13.331z"/>
				</g>
			</g>
		</g>
	</g>
</g>
</svg>
