<?xml version="1.0" encoding="utf-8"?>
<!-- Generator: Adobe Illustrator 14.0.0, SVG Export Plug-In . SVG Version: 6.00 Build 43363)  -->
<!DOCTYPE svg PUBLIC "-//W3C//DTD SVG 1.1//EN" "http://www.w3.org/Graphics/SVG/1.1/DTD/svg11.dtd">
<svg version="1.1" id="Vrstva_1" xmlns="http://www.w3.org/2000/svg" xmlns:xlink="http://www.w3.org/1999/xlink" x="0px" y="0px"
	 width="15.986px" height="15.986px" viewBox="0 0 15.986 15.986" enable-background="new 0 0 15.986 15.986" xml:space="preserve">
<g>
	<path fill="#009EE0" d="M13.992,0H1.999C0.898,0,0,0.898,0,1.999v11.989c0,1.1,0.897,1.998,1.999,1.998h11.989
		c1.1,0,1.998-0.898,1.998-1.998V1.999C15.986,0.898,15.09,0,13.992,0z"/>
	<g>
		<g>
			<path fill="#FFFFFF" d="M6.855,4.627c0,0.151-0.124,0.275-0.275,0.275H2.998c-0.151,0-0.274-0.124-0.274-0.275V3.092
				c0-0.151,0.124-0.274,0.274-0.274h3.581c0.152,0,0.275,0.124,0.275,0.274L6.855,4.627L6.855,4.627z"/>
		</g>
		<g>
			<path fill="#FFFFFF" d="M6.855,8.76c0,0.151-0.124,0.275-0.275,0.275H2.998c-0.151,0-0.274-0.124-0.274-0.275V7.226
				c0-0.151,0.124-0.275,0.274-0.275h3.581c0.152,0,0.275,0.124,0.275,0.275L6.855,8.76L6.855,8.76z"/>
		</g>
		<g>
			<path fill="#FFFFFF" d="M6.855,12.894c0,0.15-0.124,0.274-0.275,0.274H2.998c-0.151,0-0.274-0.124-0.274-0.274v-1.533
				c0-0.152,0.124-0.275,0.274-0.275h3.581c0.152,0,0.275,0.123,0.275,0.275L6.855,12.894L6.855,12.894z"/>
		</g>
		<g>
			<g>
				<g>
					<path fill="#FFFFFF" d="M13.263,4.627c0,0.151-0.123,0.275-0.275,0.275h-3.58c-0.152,0-0.277-0.124-0.277-0.275V3.092
						c0-0.151,0.125-0.274,0.277-0.274h3.58c0.152,0,0.275,0.124,0.275,0.274V4.627z"/>
				</g>
				<g>
					<path fill="#FFFFFF" d="M13.263,8.76c0,0.151-0.123,0.275-0.275,0.275h-3.58c-0.152,0-0.277-0.124-0.277-0.275V7.226
						c0-0.151,0.125-0.275,0.277-0.275h3.58c0.152,0,0.275,0.124,0.275,0.275V8.76z"/>
				</g>
				<g>
					<path fill="#FFFFFF" d="M13.263,12.894c0,0.15-0.123,0.274-0.275,0.274h-3.58c-0.152,0-0.277-0.124-0.277-0.274v-1.533
						c0-0.152,0.125-0.275,0.277-0.275h3.58c0.152,0,0.275,0.123,0.275,0.275V12.894z"/>
				</g>
			</g>
		</g>
	</g>
</g>
</svg>
