<?xml version="1.0" encoding="utf-8"?>
<!-- Generator: Adobe Illustrator 14.0.0, SVG Export Plug-In . SVG Version: 6.00 Build 43363)  -->
<!DOCTYPE svg PUBLIC "-//W3C//DTD SVG 1.1//EN" "http://www.w3.org/Graphics/SVG/1.1/DTD/svg11.dtd">
<svg version="1.1" id="Vrstva_1" xmlns="http://www.w3.org/2000/svg" xmlns:xlink="http://www.w3.org/1999/xlink" x="0px" y="0px"
	 width="16px" height="16px" viewBox="0 0 16 16" enable-background="new 0 0 16 16" xml:space="preserve">
<path fill="#009EE0" d="M16,14c0,1.102-0.9,2-2,2H2c-1.101,0-2-0.898-2-2V2c0-1.1,0.899-2,2-2h12c1.1,0,2,0.9,2,2V14z"/>
<g>
	<path fill="#FFFFFF" d="M8.008,2.182c-0.903,0-1.493,0.608-1.493,1.402c0,0.774,0.572,1.401,1.458,1.401
		c0.939,0,1.512-0.628,1.512-1.401C9.465,2.791,8.912,2.182,8.008,2.182z"/>
	<rect x="6.777" y="6.263" fill="#FFFFFF" width="2.446" height="7.556"/>
</g>
</svg>
