<?xml version="1.0" encoding="utf-8"?>
<!-- Generator: Adobe Illustrator 14.0.0, SVG Export Plug-In . SVG Version: 6.00 Build 43363)  -->
<!DOCTYPE svg PUBLIC "-//W3C//DTD SVG 1.1//EN" "http://www.w3.org/Graphics/SVG/1.1/DTD/svg11.dtd">
<svg version="1.1" id="Vrstva_1" xmlns="http://www.w3.org/2000/svg" xmlns:xlink="http://www.w3.org/1999/xlink" x="0px" y="0px"
	 width="160.831px" height="52.656px" viewBox="0 0 160.831 52.656" enable-background="new 0 0 160.831 52.656"
	 xml:space="preserve">
<g>
	<g>
		<rect x="17.361" y="17.362" fill="#E2007A" width="17.36" height="17.36"/>
		<polygon fill="#009EE0" points="39.757,17.362 39.757,39.757 17.361,39.757 17.361,52.082 39.757,52.082 52.084,52.082 
			52.084,39.757 52.084,17.362 		"/>
		<polygon fill="#009EE0" points="12.327,34.721 12.327,12.325 34.724,12.325 34.724,0 12.327,0 0,0 0,12.325 0,34.721 		"/>
	</g>
	<g>
		<path fill="#009EE0" d="M69.502,52.089L61.006,17.38h6.746l3.295,15.758c0.877,4.227,1.701,8.653,2.268,12.105h0.102
			c0.566-3.657,1.546-7.778,2.525-12.156L79.7,17.38h6.642l3.451,15.967c0.823,4.118,1.596,7.979,2.111,11.74h0.102
			c0.619-3.812,1.443-7.777,2.369-12.05l3.604-15.657h6.438l-9.375,34.709h-6.742l-3.607-16.322
			c-0.873-3.967-1.492-7.263-1.955-11.02h-0.104c-0.568,3.707-1.237,7.053-2.266,11.02l-4.018,16.322H69.502z"/>
		<path fill="#009EE0" d="M126.27,46.064c0,2.264,0.104,4.482,0.41,6.024h-5.715l-0.463-2.779h-0.154
			c-1.494,1.959-4.12,3.347-7.416,3.347c-5.047,0-7.879-3.656-7.879-7.469c0-6.281,5.613-9.526,14.883-9.471v-0.416
			c0-1.648-0.67-4.377-5.099-4.377c-2.472,0-5.046,0.775-6.746,1.857l-1.235-4.122c1.854-1.132,5.098-2.214,9.063-2.214
			c8.032,0,10.351,5.1,10.351,10.608V46.064z M120.089,39.834c-4.479-0.051-8.753,0.875-8.753,4.688c0,2.47,1.596,3.602,3.604,3.602
			c2.574,0,4.377-1.648,4.995-3.446c0.153-0.467,0.153-0.932,0.153-1.394V39.834z"/>
		<path fill="#009EE0" d="M160.831,50.492c-2.218,0.825-6.542,1.957-11.124,1.957c-5.871,0-10.351-1.492-13.646-4.632
			c-3.091-2.936-4.841-7.519-4.841-12.772c0.052-11.02,7.828-18.025,19.311-18.025c4.275,0,7.62,0.876,9.219,1.647l-1.39,5.099
			c-1.906-0.871-4.223-1.492-7.879-1.492c-7.416,0-12.617,4.378-12.617,12.462c0,7.878,4.841,12.565,12.049,12.565
			c2.319,0,3.967-0.31,4.791-0.67V37.93h-6.129v-4.997h12.257V50.492z"/>
	</g>
</g>
</svg>
