<?xml version="1.0" encoding="utf-8"?>
<!-- Generator: Adobe Illustrator 14.0.0, SVG Export Plug-In . SVG Version: 6.00 Build 43363)  -->
<!DOCTYPE svg PUBLIC "-//W3C//DTD SVG 1.1//EN" "http://www.w3.org/Graphics/SVG/1.1/DTD/svg11.dtd">
<svg version="1.1" id="Vrstva_1" xmlns="http://www.w3.org/2000/svg" xmlns:xlink="http://www.w3.org/1999/xlink" x="0px" y="0px"
	 width="261.846px" height="26.934px" viewBox="0 0 261.846 26.934" enable-background="new 0 0 261.846 26.934"
	 xml:space="preserve">
<g>
	<path fill="#009EE0" d="M22.576,26.6H21.14L15.655,7.323c-0.456-1.583-0.798-2.883-1.026-3.896
		c-0.183,0.991-0.441,2.131-0.777,3.418C13.515,8.132,11.677,14.717,8.34,26.6H6.87L0,1.615h1.829l4.375,16.099
		c0.171,0.649,0.33,1.251,0.479,1.803c0.147,0.553,0.281,1.071,0.4,1.557c0.12,0.483,0.229,0.95,0.325,1.4
		c0.096,0.45,0.185,0.903,0.265,1.358c0.273-1.549,0.854-3.902,1.743-7.059l4.272-15.158h1.931l5.007,17.396
		c0.581,2.006,0.997,3.623,1.248,4.854c0.148-0.82,0.339-1.691,0.573-2.615c0.233-0.922,1.991-7.468,5.271-19.636h1.761L22.576,26.6
		z"/>
	<path fill="#009EE0" d="M47.412,17.285c0,3.03-0.735,5.397-2.205,7.102s-3.498,2.555-6.084,2.555c-1.629,0-3.064-0.393-4.307-1.18
		c-1.242-0.785-2.193-1.914-2.854-3.383c-0.661-1.471-0.991-3.168-0.991-5.094c0-3.03,0.735-5.393,2.205-7.083
		c1.471-1.692,3.486-2.538,6.051-2.538c2.552,0,4.554,0.856,6.007,2.571C46.685,11.951,47.412,14.301,47.412,17.285z M32.749,17.285
		c0,2.553,0.562,4.544,1.685,5.974c1.121,1.43,2.708,2.146,4.759,2.146s3.637-0.716,4.759-2.146s1.684-3.421,1.684-5.974
		c0-2.563-0.566-4.552-1.699-5.964c-1.135-1.413-2.727-2.119-4.777-2.119s-3.631,0.704-4.743,2.109
		C33.304,12.72,32.749,14.711,32.749,17.285z"/>
	<path fill="#009EE0" d="M59.415,7.664c0.786,0,1.629,0.08,2.529,0.238l-0.325,1.624c-0.775-0.192-1.578-0.291-2.41-0.291
		c-1.584,0-2.883,0.673-3.896,2.018c-1.015,1.345-1.521,3.042-1.521,5.093V26.6H52.1V8.023h1.436l0.171,3.351h0.12
		c0.763-1.367,1.578-2.327,2.444-2.879C57.136,7.94,58.185,7.664,59.415,7.664z"/>
	<path fill="#009EE0" d="M71.708,7.664c1.344,0,2.506,0.245,3.486,0.734c0.979,0.49,1.856,1.328,2.632,2.513h0.103
		c-0.067-1.437-0.103-2.843-0.103-4.222V0.008h1.675V26.6h-1.11l-0.428-2.837h-0.137c-1.413,2.119-3.441,3.179-6.084,3.179
		c-2.563,0-4.523-0.797-5.879-2.393c-1.356-1.595-2.034-3.919-2.034-6.973c0-3.213,0.672-5.668,2.018-7.366
		C67.19,8.513,69.144,7.664,71.708,7.664z M71.708,9.202c-2.027,0-3.552,0.712-4.571,2.136s-1.529,3.492-1.529,6.204
		c0,5.264,2.045,7.896,6.135,7.896c2.096,0,3.634-0.608,4.614-1.828c0.979-1.22,1.47-3.229,1.47-6.032v-0.291
		c0-2.871-0.481-4.937-1.444-6.194S73.861,9.202,71.708,9.202z"/>
	<path fill="#009EE0" d="M106.11,26.6l-0.427-2.938h-0.138c-0.935,1.195-1.895,2.042-2.88,2.538
		c-0.984,0.494-2.149,0.742-3.495,0.742c-1.822,0-3.242-0.467-4.255-1.4c-1.014-0.935-1.521-2.229-1.521-3.88
		c0-1.812,0.754-3.219,2.264-4.222c1.51-1.002,3.694-1.531,6.554-1.589l3.538-0.103v-1.23c0-1.766-0.358-3.099-1.077-3.999
		c-0.718-0.899-1.875-1.35-3.469-1.35c-1.721,0-3.503,0.479-5.349,1.436l-0.632-1.47c2.038-0.957,4.056-1.436,6.05-1.436
		c2.039,0,3.563,0.529,4.57,1.589c1.01,1.06,1.514,2.712,1.514,4.956V26.6H106.11z M99.274,25.403c1.981,0,3.546-0.565,4.69-1.699
		c1.146-1.135,1.719-2.709,1.719-4.727v-1.829l-3.247,0.138c-2.609,0.126-4.47,0.532-5.58,1.223
		c-1.11,0.689-1.666,1.763-1.666,3.221c0,1.162,0.355,2.065,1.067,2.709C96.969,25.082,97.975,25.403,99.274,25.403z"/>
	<path fill="#009EE0" d="M117.903,25.438c1.071,0,2.005-0.091,2.803-0.272v1.367c-0.82,0.272-1.766,0.409-2.837,0.409
		c-1.641,0-2.852-0.438-3.632-1.315c-0.78-0.877-1.17-2.256-1.17-4.135V9.493h-2.751V8.501l2.751-0.77l0.854-4.204h0.872v4.495
		h5.452v1.471h-5.452V21.25c0,1.425,0.25,2.479,0.752,3.162C116.046,25.096,116.832,25.438,117.903,25.438z"/>
	<path fill="#009EE0" d="M145.094,26.6l-0.428-2.938h-0.137c-0.935,1.195-1.895,2.042-2.879,2.538
		c-0.986,0.494-2.151,0.742-3.495,0.742c-1.823,0-3.241-0.467-4.255-1.4c-1.016-0.935-1.521-2.229-1.521-3.88
		c0-1.812,0.755-3.219,2.266-4.222c1.509-1.002,3.692-1.531,6.554-1.589l3.537-0.103v-1.23c0-1.766-0.358-3.099-1.076-3.999
		c-0.718-0.899-1.874-1.35-3.469-1.35c-1.722,0-3.504,0.479-5.351,1.436l-0.633-1.47c2.04-0.957,4.058-1.436,6.051-1.436
		c2.039,0,3.563,0.529,4.571,1.589s1.513,2.712,1.513,4.956V26.6H145.094z M138.258,25.403c1.982,0,3.546-0.565,4.691-1.699
		c1.145-1.135,1.717-2.709,1.717-4.727v-1.829l-3.246,0.138c-2.608,0.126-4.47,0.532-5.58,1.223
		c-1.11,0.689-1.666,1.763-1.666,3.221c0,1.162,0.355,2.065,1.067,2.709C135.953,25.082,136.959,25.403,138.258,25.403z"/>
	<path fill="#009EE0" d="M171.702,14.004h9.212v11.398c-2.416,1.025-5.134,1.538-8.152,1.538c-3.941,0-6.964-1.112-9.065-3.341
		c-2.103-2.228-3.152-5.381-3.152-9.459c0-2.541,0.521-4.793,1.563-6.759c1.042-1.965,2.534-3.483,4.478-4.554
		c1.942-1.071,4.172-1.606,6.69-1.606c2.723,0,5.167,0.501,7.331,1.504l-0.7,1.572c-2.165-1.002-4.409-1.504-6.733-1.504
		c-3.293,0-5.903,1.017-7.836,3.05c-1.931,2.034-2.896,4.777-2.896,8.229c0,3.759,0.917,6.588,2.752,8.484
		c1.834,1.897,4.528,2.847,8.083,2.847c2.301,0,4.255-0.325,5.862-0.975v-8.785h-7.436L171.702,14.004L171.702,14.004z"/>
	<path fill="#009EE0" d="M188.183,26.6h-1.691V0.008h1.691V26.6z"/>
	<path fill="#009EE0" d="M205.033,26.6l-0.428-2.938h-0.138c-0.934,1.195-1.894,2.042-2.879,2.538
		c-0.985,0.494-2.15,0.742-3.495,0.742c-1.822,0-3.24-0.467-4.255-1.4c-1.015-0.935-1.521-2.229-1.521-3.88
		c0-1.812,0.755-3.219,2.265-4.222c1.509-1.002,3.693-1.531,6.555-1.589l3.536-0.103v-1.23c0-1.766-0.357-3.099-1.075-3.999
		c-0.719-0.899-1.874-1.35-3.47-1.35c-1.721,0-3.504,0.479-5.35,1.436l-0.633-1.47c2.04-0.957,4.057-1.436,6.051-1.436
		c2.039,0,3.563,0.529,4.571,1.589c1.008,1.06,1.513,2.712,1.513,4.956V26.6H205.033z M198.197,25.403
		c1.981,0,3.546-0.565,4.69-1.699c1.146-1.135,1.718-2.709,1.718-4.727v-1.829l-3.246,0.138c-2.609,0.126-4.47,0.532-5.58,1.223
		c-1.111,0.689-1.666,1.763-1.666,3.221c0,1.162,0.354,2.065,1.066,2.709C195.892,25.082,196.898,25.403,198.197,25.403z"/>
	<path fill="#009EE0" d="M224.732,26.6V14.551c0-1.868-0.394-3.227-1.181-4.076c-0.784-0.849-2.005-1.272-3.655-1.272
		c-2.224,0-3.85,0.562-4.88,1.684c-1.031,1.122-1.547,2.942-1.547,5.46V26.6h-1.691V8.023h1.436l0.325,2.546h0.103
		c1.208-1.937,3.354-2.904,6.442-2.904c4.215,0,6.323,2.262,6.323,6.785V26.6H224.732z"/>
	<path fill="#009EE0" d="M239.42,26.941c-2.654,0-4.733-0.838-6.237-2.512c-1.505-1.676-2.257-4.011-2.257-7.008
		c0-3.076,0.78-5.471,2.343-7.187c1.561-1.715,3.696-2.571,6.407-2.571c1.607,0,3.146,0.278,4.615,0.837l-0.462,1.504
		c-1.605-0.535-3.002-0.803-4.187-0.803c-2.279,0-4.007,0.704-5.18,2.109c-1.174,1.408-1.761,3.434-1.761,6.076
		c0,2.506,0.587,4.469,1.761,5.887c1.173,1.419,2.813,2.128,4.922,2.128c1.687,0,3.254-0.302,4.7-0.904v1.571
		C242.9,26.65,241.344,26.941,239.42,26.941z"/>
	<path fill="#009EE0" d="M255.265,26.941c-2.699,0-4.806-0.831-6.314-2.494c-1.51-1.663-2.264-3.993-2.264-6.989
		c0-2.962,0.729-5.335,2.188-7.118c1.458-1.783,3.423-2.675,5.896-2.675c2.188,0,3.913,0.764,5.179,2.29
		c1.264,1.526,1.896,3.601,1.896,6.221v1.367h-13.381c0.022,2.553,0.617,4.501,1.785,5.845c1.168,1.345,2.84,2.018,5.017,2.018
		c1.061,0,1.99-0.074,2.795-0.223c0.803-0.147,1.819-0.468,3.051-0.957v1.537c-1.049,0.456-2.019,0.768-2.906,0.932
		C257.318,26.859,256.337,26.941,255.265,26.941z M254.77,9.168c-1.789,0-3.226,0.59-4.308,1.769
		c-1.083,1.181-1.715,2.88-1.896,5.103h11.483c0-2.153-0.467-3.837-1.399-5.05C257.716,9.774,256.422,9.168,254.77,9.168z"/>
</g>
</svg>
