<?xml version="1.0" encoding="utf-8"?>
<!-- Generator: Adobe Illustrator 14.0.0, SVG Export Plug-In . SVG Version: 6.00 Build 43363)  -->
<!DOCTYPE svg PUBLIC "-//W3C//DTD SVG 1.1//EN" "http://www.w3.org/Graphics/SVG/1.1/DTD/svg11.dtd">
<svg version="1.1" id="Vrstva_1" xmlns="http://www.w3.org/2000/svg" xmlns:xlink="http://www.w3.org/1999/xlink" x="0px" y="0px"
	 width="261.808px" height="30.047px" viewBox="0 -0.098 261.808 30.047" enable-background="new 0 -0.098 261.808 30.047"
	 xml:space="preserve">
<g>
	<g>
		<rect x="10.015" y="9.919" fill="#E2007A" width="10.015" height="10.015"/>
		<polygon fill="#009EE0" points="22.935,9.918 22.935,22.838 10.015,22.838 10.015,29.949 22.935,29.949 30.047,29.949 
			30.047,22.838 30.047,9.918 		"/>
		<polygon fill="#009EE0" points="7.111,19.933 7.111,7.014 20.031,7.014 20.031,-0.098 7.111,-0.098 0,-0.098 0,7.014 0,19.933 		
			"/>
	</g>
	<g>
		<path fill="#009EE0" d="M44.885,26.098L38.747,2.86h1.69l3.378,13.104c0.759,2.997,1.483,5.79,1.931,7.964h0.069
			c0.379-2.174,1.208-4.931,2.137-7.964L51.746,2.86h1.586l3.448,12.999c0.758,2.826,1.518,5.725,1.896,8.068h0.069
			c0.517-2.518,1.276-5.035,2.103-7.999L64.676,2.86h1.69l-6.965,23.238h-1.585l-3.483-13.377c-0.931-3.414-1.483-5.689-1.793-7.862
			H52.47c-0.379,2.138-1.035,4.448-2.069,7.862l-3.965,13.377H44.885z"/>
		<path fill="#009EE0" d="M81.568,17.651c0,6.173-4.241,8.828-7.932,8.828c-4.274,0-7.584-3.345-7.584-8.518
			c0-5.655,3.724-8.792,7.827-8.792C78.464,9.17,81.568,12.618,81.568,17.651z M67.706,17.858c0,4.136,2.655,7.241,6.035,7.241
			c3.448,0,6.171-3.105,6.171-7.343c0-3.035-1.69-7.208-6.068-7.208C69.603,10.549,67.706,14.307,67.706,17.858z"/>
		<path fill="#009EE0" d="M84.806,14.514c0-1.655-0.035-3.344-0.138-4.965h1.517l0.069,3.344h0.104
			c0.724-2.069,2.448-3.724,4.688-3.724c0.242,0,0.483,0.035,0.69,0.068v1.586c-0.242-0.069-0.483-0.069-0.793-0.069
			c-2.276,0-3.896,1.965-4.344,4.62c-0.104,0.483-0.138,1.035-0.138,1.586v9.137h-1.656V14.514z"/>
		<path fill="#009EE0" d="M107.02,1.619v20.619c0,1.241,0.035,2.689,0.139,3.86h-1.483l-0.138-3.137h-0.069
			c-0.862,1.827-2.828,3.518-5.896,3.518c-4.104,0-7.137-3.414-7.137-8.344c-0.035-5.517,3.379-8.965,7.446-8.965
			c2.863,0,4.69,1.482,5.414,2.931h0.069V1.619H107.02z M105.365,16.1c0-0.448-0.035-1.067-0.172-1.518
			c-0.553-2.207-2.518-4.034-5.207-4.034c-3.62,0-5.896,3.138-5.896,7.413c0,3.724,1.862,7.138,5.792,7.138
			c2.381,0,4.621-1.585,5.311-4.309c0.137-0.449,0.172-0.863,0.172-1.379V16.1z"/>
		<path fill="#009EE0" d="M130.428,22.169c0,1.31,0.034,2.652,0.241,3.929h-1.517l-0.242-2.379h-0.068
			c-0.827,1.276-2.655,2.76-5.31,2.76c-3.344,0-4.861-2.346-4.861-4.552c0-3.828,3.344-6.137,10.102-6.068v-0.449
			c0-1.62-0.309-4.896-4.24-4.861c-1.448,0-2.966,0.379-4.172,1.241l-0.518-1.206c1.518-1.001,3.379-1.414,4.861-1.414
			c4.793,0,5.725,3.585,5.725,6.517V22.169z M128.772,17.24c-3.621-0.105-8.377,0.446-8.377,4.413c0,2.378,1.586,3.446,3.31,3.446
			c2.758,0,4.344-1.689,4.895-3.311c0.139-0.344,0.172-0.724,0.172-0.998V17.24z"/>
		<path fill="#009EE0" d="M136.769,5.894v3.655h4.725v1.344h-4.725v10.759c0,2.103,0.655,3.411,2.414,3.411
			c0.862,0,1.482-0.103,1.896-0.242l0.207,1.243c-0.551,0.242-1.31,0.414-2.312,0.414c-1.204,0-2.206-0.381-2.825-1.173
			c-0.76-0.86-1.034-2.276-1.034-3.966V10.893h-2.794V9.549h2.794V6.515L136.769,5.894z"/>
		<path fill="#009EE0" d="M163.006,22.169c0,1.31,0.036,2.652,0.242,3.929h-1.517l-0.241-2.379h-0.07
			c-0.827,1.276-2.654,2.76-5.31,2.76c-3.343,0-4.861-2.346-4.861-4.552c0-3.828,3.345-6.137,10.104-6.068v-0.449
			c0-1.62-0.311-4.896-4.241-4.861c-1.449,0-2.965,0.379-4.174,1.241l-0.518-1.206c1.518-1.001,3.38-1.414,4.862-1.414
			c4.793,0,5.724,3.585,5.724,6.517V22.169z M161.353,17.24c-3.621-0.105-8.379,0.446-8.379,4.413c0,2.378,1.585,3.446,3.31,3.446
			c2.758,0,4.345-1.689,4.896-3.311c0.139-0.344,0.174-0.724,0.174-0.998V17.24z"/>
		<path fill="#009EE0" d="M192.588,25.064c-1.173,0.484-3.622,1.275-6.793,1.275c-3.069,0-5.862-0.791-8.207-3.033
			c-1.932-1.896-3.205-5.036-3.205-8.758c0-6.448,4.239-11.929,12.136-11.929c2.482,0,4.517,0.586,5.413,1.034l-0.552,1.379
			c-1.206-0.586-2.724-1-4.965-1c-6.378,0-10.31,4.137-10.31,10.447c0,6.551,3.827,10.448,9.965,10.448c2.447,0,4-0.346,4.861-0.794
			v-8.205h-5.379v-1.346h7.035V25.064z"/>
		<path fill="#009EE0" d="M196.853,1.619h1.655v24.479h-1.655V1.619z"/>
		<path fill="#009EE0" d="M213.494,22.169c0,1.31,0.034,2.652,0.241,3.929h-1.518l-0.242-2.379h-0.068
			c-0.826,1.276-2.655,2.76-5.31,2.76c-3.344,0-4.861-2.346-4.861-4.552c0-3.828,3.344-6.137,10.103-6.068v-0.449
			c0-1.62-0.311-4.896-4.241-4.861c-1.448,0-2.966,0.379-4.171,1.241l-0.519-1.206c1.518-1.001,3.38-1.414,4.862-1.414
			c4.792,0,5.724,3.585,5.724,6.517V22.169z M211.839,17.24c-3.62-0.105-8.379,0.446-8.379,4.413c0,2.378,1.586,3.446,3.31,3.446
			c2.76,0,4.345-1.689,4.896-3.311c0.138-0.344,0.173-0.724,0.173-0.998V17.24z"/>
		<path fill="#009EE0" d="M217.665,13.514c0-1.518-0.034-2.655-0.14-3.965h1.553l0.104,3h0.067c0.897-1.862,3.001-3.379,5.69-3.379
			c1.585,0,5.793,0.793,5.793,7v9.929h-1.656v-9.79c0-3.001-1.171-5.724-4.585-5.724c-2.311,0-4.31,1.654-4.965,3.791
			c-0.104,0.414-0.207,0.968-0.207,1.484v10.239h-1.654V13.514z"/>
		<path fill="#009EE0" d="M246.694,25.376c-0.726,0.344-2.448,1.067-4.861,1.067c-4.759,0-7.932-3.482-7.932-8.446
			c0-5.242,3.587-8.828,8.517-8.828c2.035,0,3.726,0.586,4.346,1.035l-0.588,1.345c-0.792-0.449-2.068-0.965-3.895-0.965
			c-4.449,0-6.724,3.414-6.724,7.274c0,4.345,2.724,7.173,6.552,7.173c1.964,0,3.239-0.553,4.137-0.966L246.694,25.376z"/>
		<path fill="#009EE0" d="M249.532,17.651c0,5.276,2.863,7.38,6.312,7.38c2.412,0,3.653-0.482,4.584-0.931l0.415,1.276
			c-0.621,0.344-2.312,1.067-5.208,1.067c-4.759,0-7.724-3.447-7.724-8.309c0-5.517,3.174-8.965,7.448-8.965
			c5.414,0,6.448,5.102,6.448,7.481c0,0.449,0,0.689-0.068,1H249.532z M260.083,16.34c0.034-2.31-0.93-5.792-4.93-5.792
			c-3.655,0-5.24,3.241-5.551,5.792H260.083z"/>
	</g>
</g>
</svg>
