<?xml version="1.0" encoding="utf-8"?>
<!-- Generator: Adobe Illustrator 14.0.0, SVG Export Plug-In . SVG Version: 6.00 Build 43363)  -->
<!DOCTYPE svg PUBLIC "-//W3C//DTD SVG 1.1//EN" "http://www.w3.org/Graphics/SVG/1.1/DTD/svg11.dtd">
<svg version="1.1" id="Vrstva_1" xmlns="http://www.w3.org/2000/svg" xmlns:xlink="http://www.w3.org/1999/xlink" x="0px" y="0px"
	 width="258.636px" height="30.012px" viewBox="0 -0.003 258.636 30.012" enable-background="new 0 -0.003 258.636 30.012"
	 xml:space="preserve">
<g>
	<g>
		<path fill="#009EE0" d="M40.228,26.471c1.582,1.082,3.788,1.831,6.119,1.831c4.204,0,6.785-2.373,6.785-5.827
			c0-3.164-1.624-4.994-5.703-6.577c-4.495-1.582-7.201-3.912-7.201-7.742c0-4.122,3.372-7.118,8.159-7.118
			c2.622,0,4.62,0.665,5.578,1.331l-0.75,1.665c-0.75-0.541-2.539-1.333-4.953-1.333c-4.537,0-6.078,2.915-6.078,5.121
			c0,3.122,1.791,4.704,5.828,6.285c4.621,1.874,7.078,3.955,7.078,8.16c0,4.079-2.915,7.742-8.909,7.742
			c-2.414,0-5.245-0.79-6.701-1.915L40.228,26.471z"/>
		<path fill="#009EE0" d="M59.074-0.003h1.999V29.55h-1.999V-0.003z"/>
		<path fill="#009EE0" d="M83.966,19.354c0,7.45-5.12,10.655-9.574,10.655c-5.162,0-9.158-4.037-9.158-10.282
			c0-6.826,4.496-10.614,9.449-10.614C80.22,9.112,83.966,13.275,83.966,19.354z M67.232,19.602c0,4.995,3.206,8.743,7.284,8.743
			c4.163,0,7.451-3.748,7.451-8.868c0-3.663-2.039-8.699-7.326-8.699C69.522,10.777,67.232,15.315,67.232,19.602z"/>
		<path fill="#009EE0" d="M87.019,9.57l4.662,12.406c0.791,1.956,1.416,3.661,1.957,5.328h0.083c0.542-1.667,1.291-3.414,2.04-5.328
			l4.745-12.406h2.082L94.47,29.55h-1.748L84.897,9.57H87.019z"/>
		<path fill="#009EE0" d="M122.078,19.354c0,7.45-5.119,10.655-9.573,10.655c-5.162,0-9.159-4.037-9.159-10.282
			c0-6.826,4.496-10.614,9.45-10.614C118.333,9.112,122.078,13.275,122.078,19.354z M105.345,19.602
			c0,4.995,3.205,8.743,7.285,8.743c4.162,0,7.451-3.748,7.451-8.868c0-3.663-2.04-8.699-7.326-8.699
			C107.635,10.777,105.345,15.315,105.345,19.602z"/>
		<path fill="#009EE0" d="M135.646,9.57l4.662,12.406c0.791,1.956,1.415,3.661,1.957,5.328h0.082
			c0.541-1.667,1.292-3.414,2.04-5.328l4.744-12.406h2.083l-8.118,19.98h-1.747l-7.827-19.98H135.646z"/>
		<path fill="#009EE0" d="M166.155,19.186h0.085c0.497-0.624,1.289-1.54,1.913-2.206l7.076-7.41h2.414l-8.075,8.285l9.2,11.695
			h-2.414l-8.159-10.489l-2.04,2.165v8.324h-1.997V-0.003h1.997V19.186z"/>
		<path fill="#009EE0" d="M197.365,19.354c0,7.45-5.12,10.655-9.574,10.655c-5.161,0-9.158-4.037-9.158-10.282
			c0-6.826,4.496-10.614,9.449-10.614C193.618,9.112,197.365,13.275,197.365,19.354z M180.631,19.602
			c0,4.995,3.206,8.743,7.285,8.743c4.162,0,7.451-3.748,7.451-8.868c0-3.663-2.039-8.699-7.326-8.699
			C182.921,10.777,180.631,15.315,180.631,19.602z"/>
		<path fill="#009EE0" d="M200.109,26.929c1.083,0.665,2.708,1.373,4.496,1.373c3.163,0,4.663-1.708,4.663-3.787
			c0-2.208-1.333-3.373-4.204-4.539c-3.289-1.247-5.078-3.038-5.078-5.452c0-2.872,2.289-5.411,6.159-5.411
			c1.833,0,3.413,0.541,4.413,1.249l-0.749,1.624c-0.709-0.5-1.998-1.208-3.997-1.208c-2.539,0-3.871,1.624-3.871,3.455
			c0,2.08,1.415,2.996,4.121,4.122c3.247,1.247,5.163,2.871,5.163,5.909c0,3.414-2.665,5.703-6.744,5.703
			c-1.916,0-3.747-0.541-5.078-1.374L200.109,26.929z"/>
		<path fill="#009EE0" d="M218.644,5.158V9.57h5.703v1.624h-5.703v12.987c0,2.539,0.791,4.121,2.914,4.121
			c1.04,0,1.79-0.125,2.29-0.292l0.248,1.5c-0.665,0.29-1.582,0.499-2.788,0.499c-1.457,0-2.664-0.459-3.414-1.416
			c-0.916-1.04-1.249-2.746-1.249-4.786V11.193h-3.371V9.57h3.371V5.908L218.644,5.158z"/>
		<path fill="#009EE0" d="M240.547,28.676c-0.874,0.418-2.955,1.291-5.869,1.291c-5.744,0-9.573-4.203-9.573-10.198
			c0-6.327,4.329-10.656,10.281-10.656c2.456,0,4.495,0.708,5.245,1.249l-0.709,1.624c-0.958-0.542-2.496-1.166-4.704-1.166
			c-5.368,0-8.116,4.121-8.116,8.782c0,5.245,3.289,8.659,7.91,8.659c2.372,0,3.912-0.667,4.993-1.166L240.547,28.676z"/>
		<path fill="#009EE0" d="M243.816,19.354c0,6.367,3.455,8.907,7.619,8.907c2.914,0,4.41-0.583,5.535-1.125l0.5,1.54
			c-0.749,0.418-2.789,1.291-6.286,1.291c-5.743,0-9.325-4.162-9.325-10.031c0-6.661,3.83-10.823,8.992-10.823
			c6.536,0,7.784,6.16,7.784,9.032c0,0.542,0,0.834-0.083,1.209H243.816z M256.554,17.771c0.042-2.789-1.124-6.993-5.952-6.993
			c-4.413,0-6.327,3.913-6.702,6.993H256.554z"/>
	</g>
	<g>
		<rect x="9.87" y="9.869" fill="#E2007A" width="9.869" height="9.871"/>
		<polygon fill="#009EE0" points="22.601,9.87 22.601,22.601 9.87,22.601 9.87,29.608 22.601,29.608 29.61,29.608 29.61,22.601 
			29.61,9.87 		"/>
		<polygon fill="#009EE0" points="7.008,19.739 7.008,7.006 19.739,7.006 19.739,-0.001 7.008,-0.001 0,-0.001 0,7.006 0,19.739 		
			"/>
	</g>
</g>
</svg>
