<?xml version="1.0" encoding="utf-8"?>
<!-- Generator: Adobe Illustrator 14.0.0, SVG Export Plug-In . SVG Version: 6.00 Build 43363)  -->
<!DOCTYPE svg PUBLIC "-//W3C//DTD SVG 1.1//EN" "http://www.w3.org/Graphics/SVG/1.1/DTD/svg11.dtd">
<svg version="1.1" id="Vrstva_1" xmlns="http://www.w3.org/2000/svg" xmlns:xlink="http://www.w3.org/1999/xlink" x="0px" y="0px"
	 width="258.648px" height="33.09px" viewBox="0 0 258.648 33.09" enable-background="new 0 0 258.648 33.09" xml:space="preserve">
<g>
	<path fill="#009EE0" d="M18.937,24.754c0,2.563-0.941,4.592-2.824,6.09c-1.883,1.497-4.385,2.246-7.506,2.246
		c-3.751,0-6.628-0.412-8.629-1.238v-2.143c2.211,0.938,5.031,1.406,8.461,1.406c2.52,0,4.518-0.576,5.995-1.731
		c1.477-1.153,2.215-2.67,2.215-4.546c0-1.16-0.245-2.123-0.735-2.887c-0.489-0.764-1.288-1.459-2.394-2.09
		c-1.106-0.629-2.729-1.309-4.871-2.035c-3.136-1.078-5.301-2.244-6.499-3.496c-1.196-1.254-1.795-2.922-1.795-5.008
		c0-2.297,0.897-4.168,2.697-5.617c1.799-1.448,4.11-2.172,6.938-2.172c2.883,0,5.592,0.545,8.125,1.637L17.34,5.018
		c-2.549-1.063-4.982-1.596-7.308-1.596c-2.268,0-4.073,0.525-5.417,1.574C3.272,6.047,2.6,7.475,2.6,9.279
		c0,1.135,0.207,2.064,0.619,2.793c0.413,0.729,1.089,1.383,2.025,1.963c0.938,0.582,2.547,1.277,4.829,2.09
		c2.395,0.826,4.192,1.627,5.396,2.404c1.204,0.775,2.082,1.656,2.636,2.646C18.66,22.162,18.937,23.354,18.937,24.754z"/>
	<path fill="#009EE0" d="M26.204,32.67h-2.079V0h2.079V32.67z"/>
	<path fill="#009EE0" d="M52.077,21.227c0,3.726-0.902,6.633-2.708,8.726c-1.805,2.094-4.297,3.14-7.475,3.14
		c-2.002,0-3.767-0.48-5.291-1.449c-1.526-0.965-2.695-2.353-3.506-4.154c-0.813-1.809-1.219-3.893-1.219-6.26
		c0-3.723,0.902-6.624,2.708-8.702c1.807-2.078,4.282-3.117,7.434-3.117c3.135,0,5.596,1.054,7.38,3.16
		C51.186,14.673,52.077,17.561,52.077,21.227z M34.063,21.227c0,3.137,0.688,5.582,2.067,7.34c1.379,1.756,3.327,2.636,5.849,2.636
		c2.52,0,4.469-0.88,5.848-2.636c1.378-1.758,2.068-4.203,2.068-7.34c0-3.147-0.696-5.591-2.089-7.326
		c-1.395-1.736-3.351-2.604-5.868-2.604c-2.521,0-4.462,0.864-5.826,2.593C34.744,15.619,34.063,18.063,34.063,21.227z"/>
	<path fill="#009EE0" d="M62.792,32.67L53.975,9.848h2.142l5.9,15.515c0.783,1.988,1.372,3.726,1.764,5.207h0.126
		c0.574-1.901,1.162-3.651,1.765-5.248l5.899-15.474h2.143L64.895,32.67H62.792z"/>
	<path fill="#009EE0" d="M95.805,21.227c0,3.726-0.902,6.633-2.708,8.726c-1.808,2.094-4.299,3.14-7.477,3.14
		c-2.002,0-3.766-0.48-5.291-1.449c-1.524-0.965-2.692-2.353-3.507-4.154c-0.813-1.809-1.217-3.893-1.217-6.26
		c0-3.723,0.901-6.624,2.708-8.702c1.806-2.078,4.283-3.117,7.433-3.117c3.136,0,5.597,1.054,7.38,3.16
		C94.912,14.673,95.805,17.561,95.805,21.227z M77.79,21.227c0,3.137,0.689,5.582,2.067,7.34c1.379,1.756,3.328,2.636,5.848,2.636
		c2.521,0,4.47-0.88,5.85-2.636c1.378-1.758,2.065-4.203,2.065-7.34c0-3.147-0.694-5.591-2.089-7.326
		c-1.393-1.736-3.349-2.604-5.868-2.604c-2.519,0-4.462,0.864-5.825,2.593C78.473,15.619,77.79,18.063,77.79,21.227z"/>
	<path fill="#009EE0" d="M118.291,32.67l-8.816-22.822h2.142l5.9,15.515c0.782,1.988,1.371,3.726,1.764,5.207h0.125
		c0.574-1.901,1.162-3.651,1.764-5.248l5.9-15.474h2.142l-8.816,22.822H118.291z"/>
	<path fill="#009EE0" d="M146.239,22.654l11.652-12.807h2.52l-8.985,9.742l9.765,13.08h-2.499l-8.671-11.526l-3.738,3.401v8.125
		h-2.078V0h2.078v16.377l-0.146,6.277H146.239L146.239,22.654z"/>
	<path fill="#009EE0" d="M182.636,21.227c0,3.726-0.901,6.633-2.709,8.726c-1.806,2.094-4.297,3.14-7.476,3.14
		c-2.002,0-3.766-0.48-5.291-1.449c-1.524-0.965-2.693-2.353-3.506-4.154c-0.813-1.809-1.218-3.893-1.218-6.26
		c0-3.723,0.902-6.624,2.708-8.702c1.807-2.078,4.282-3.117,7.434-3.117c3.136,0,5.596,1.054,7.38,3.16
		C181.744,14.673,182.636,17.561,182.636,21.227z M164.621,21.227c0,3.137,0.689,5.582,2.068,7.34
		c1.378,1.756,3.327,2.636,5.847,2.636c2.521,0,4.47-0.88,5.849-2.636c1.38-1.758,2.067-4.203,2.067-7.34
		c0-3.147-0.695-5.591-2.089-7.326c-1.395-1.736-3.349-2.604-5.868-2.604c-2.519,0-4.462,0.864-5.827,2.593
		C165.305,15.619,164.621,18.063,164.621,21.227z"/>
	<path fill="#009EE0" d="M202.463,26.729c0,2.043-0.776,3.615-2.33,4.713c-1.556,1.101-3.76,1.648-6.613,1.648
		c-3.053,0-5.475-0.469-7.266-1.406v-2.246c2.295,1.146,4.718,1.722,7.266,1.722c2.253,0,3.965-0.373,5.134-1.123
		c1.168-0.748,1.753-1.746,1.753-2.992c0-1.146-0.466-2.112-1.396-2.896s-2.46-1.555-4.587-2.311
		c-2.281-0.826-3.886-1.535-4.81-2.132c-0.924-0.595-1.62-1.267-2.089-2.017c-0.47-0.748-0.704-1.662-0.704-2.739
		c0-1.707,0.718-3.059,2.152-4.053c1.436-0.992,3.438-1.49,6.016-1.49c2.463,0,4.801,0.463,7.013,1.387l-0.774,1.89
		c-2.24-0.924-4.318-1.386-6.236-1.386c-1.86,0-3.338,0.308-4.43,0.924c-1.093,0.616-1.64,1.471-1.64,2.563
		c0,1.188,0.425,2.142,1.271,2.854c0.847,0.713,2.502,1.514,4.966,2.395c2.059,0.742,3.556,1.41,4.493,2.006
		s1.642,1.271,2.109,2.025C202.229,24.818,202.463,25.707,202.463,26.729z"/>
	<path fill="#009EE0" d="M214.927,31.242c1.314,0,2.465-0.111,3.442-0.336v1.681c-1.008,0.336-2.17,0.504-3.484,0.504
		c-2.017,0-3.503-0.538-4.462-1.616c-0.958-1.078-1.438-2.771-1.438-5.08V11.654h-3.38v-1.219l3.38-0.945l1.051-5.164h1.07v5.521
		h6.696v1.805h-6.696v14.446c0,1.75,0.308,3.045,0.924,3.885C212.645,30.822,213.612,31.242,214.927,31.242z"/>
	<path fill="#009EE0" d="M231.213,33.09c-3.263,0-5.815-1.029-7.664-3.086c-1.849-2.059-2.771-4.928-2.771-8.609
		c0-3.778,0.959-6.722,2.877-8.828c1.917-2.105,4.541-3.16,7.873-3.16c1.974,0,3.863,0.344,5.669,1.029l-0.566,1.848
		c-1.974-0.658-3.688-0.986-5.145-0.986c-2.8,0-4.921,0.863-6.362,2.593c-1.439,1.729-2.161,4.218-2.161,7.464
		c0,3.08,0.722,5.49,2.161,7.232c1.441,1.743,3.457,2.614,6.048,2.614c2.071,0,3.995-0.371,5.773-1.112v1.932
		C235.489,32.732,233.577,33.09,231.213,33.09z"/>
	<path fill="#009EE0" d="M250.542,33.09c-3.315,0-5.901-1.021-7.758-3.064c-1.854-2.045-2.782-4.905-2.782-8.588
		c0-3.64,0.896-6.555,2.688-8.744c1.792-2.19,4.206-3.287,7.243-3.287c2.688,0,4.809,0.938,6.361,2.813
		c1.554,1.875,2.33,4.423,2.33,7.643v1.681h-16.438c0.027,3.136,0.759,5.528,2.193,7.181c1.436,1.651,3.487,2.479,6.161,2.479
		c1.303,0,2.446-0.09,3.435-0.271c0.986-0.184,2.235-0.574,3.748-1.176v1.889c-1.288,0.562-2.479,0.941-3.569,1.146
		C253.063,32.988,251.859,33.09,250.542,33.09z M249.934,11.254c-2.197,0-3.961,0.725-5.291,2.173
		c-1.33,1.448-2.106,3.538-2.33,6.268h14.108c0-2.646-0.573-4.714-1.723-6.204C253.552,12,251.963,11.254,249.934,11.254z"/>
</g>
</svg>
