<?xml version="1.0" encoding="utf-8"?>
<!-- Generator: Adobe Illustrator 14.0.0, SVG Export Plug-In . SVG Version: 6.00 Build 43363)  -->
<!DOCTYPE svg PUBLIC "-//W3C//DTD SVG 1.1//EN" "http://www.w3.org/Graphics/SVG/1.1/DTD/svg11.dtd">
<svg version="1.1" id="Vrstva_1" xmlns="http://www.w3.org/2000/svg" xmlns:xlink="http://www.w3.org/1999/xlink" x="0px" y="0px"
	 width="16px" height="16px" viewBox="0 0 16 16" enable-background="new 0 0 16 16" xml:space="preserve">
<path fill="#00CAF6" d="M16,14c0,1.102-0.9,2-2,2H2c-1.101,0-2-0.898-2-2V2c0-1.1,0.899-2,2-2h12c1.1,0,2,0.9,2,2V14z"/>
<path fill="#FFFFFF" d="M7.543,14.133c0.955,0,1.563-0.68,1.563-1.58c-0.018-0.938-0.625-1.58-1.563-1.58
	c-0.902,0-1.545,0.645-1.545,1.58C5.998,13.455,6.623,14.133,7.543,14.133z"/>
<path fill="#FFFFFF" d="M8.748,9.977V9.662C8.73,8.883,9.008,8.205,9.633,7.494c0.66-0.729,1.492-1.598,1.492-2.917
	c0-1.441-1.059-2.708-3.352-2.708c-1.232,0-2.257,0.348-2.898,0.711l0.59,1.894c0.451-0.313,1.146-0.521,1.72-0.521
	C8.053,3.97,8.453,4.387,8.453,4.995c0,0.571-0.45,1.145-1.007,1.822C6.663,7.736,6.368,8.641,6.422,9.523l0.017,0.451h2.309V9.977z
	"/>
</svg>
