<?xml version="1.0" encoding="utf-8"?>
<!-- Generator: Adobe Illustrator 14.0.0, SVG Export Plug-In . SVG Version: 6.00 Build 43363)  -->
<!DOCTYPE svg PUBLIC "-//W3C//DTD SVG 1.1//EN" "http://www.w3.org/Graphics/SVG/1.1/DTD/svg11.dtd">
<svg version="1.1" id="Vrstva_1" xmlns="http://www.w3.org/2000/svg" xmlns:xlink="http://www.w3.org/1999/xlink" x="0px" y="0px"
	 width="16px" height="16px" viewBox="0 0 16 16" enable-background="new 0 0 16 16" xml:space="preserve">
<g>
	<g>
		<path fill="#009EE0" d="M16,14c0,1.1-0.9,2-2,2H2c-1.101,0-2-0.9-2-2V2c0-1.1,0.899-2,2-2h12c1.1,0,2,0.9,2,2V14z"/>
	</g>
	<path fill="#FFFFFF" d="M7.971,14.186c-0.938,0-1.59-0.705-1.59-1.643c0-0.977,0.67-1.645,1.627-1.645s1.588,0.668,1.606,1.645
		c0,0.938-0.632,1.643-1.606,1.643H7.971z"/>
	<polygon fill="#FFFFFF" points="6.979,9.996 6.58,1.814 9.436,1.814 9.038,9.996 	"/>
</g>
</svg>
