<?xml version="1.0" encoding="utf-8"?>
<!-- Generator: Adobe Illustrator 14.0.0, SVG Export Plug-In . SVG Version: 6.00 Build 43363)  -->
<!DOCTYPE svg PUBLIC "-//W3C//DTD SVG 1.1//EN" "http://www.w3.org/Graphics/SVG/1.1/DTD/svg11.dtd">
<svg version="1.1" id="Vrstva_1" xmlns="http://www.w3.org/2000/svg" xmlns:xlink="http://www.w3.org/1999/xlink" x="0px" y="0px"
	 width="28.742px" height="15.792px" viewBox="0 0 28.742 15.792" enable-background="new 0 0 28.742 15.792" xml:space="preserve">
<path fill="#00CAF6" d="M24.218,6.805c-0.432,0-0.848,0.06-1.241,0.171c0.002-0.057,0.004-0.114,0.004-0.171
	c0-2.482-2.024-4.494-4.524-4.494c-1.105,0-2.121,0.395-2.904,1.05C14.537,1.368,12.457,0,10.055,0C6.658,0,3.904,2.736,3.904,6.11
	c0,0.247,0.016,0.491,0.044,0.73C1.722,7.122,0,9.011,0,11.298c0,2.481,2.026,4.494,4.523,4.494h19.693l0,0l0,0
	c2.498,0,4.523-2.013,4.523-4.494C28.74,8.818,26.714,6.805,24.218,6.805z"/>
</svg>
