<?xml version="1.0" encoding="UTF-8" standalone="no"?>
<!-- Generator: Adobe Illustrator 14.0.0, SVG Export Plug-In . SVG Version: 6.00 Build 43363)  -->

<svg
   version="1.1"
   id="Vrstva_1"
   x="0px"
   y="0px"
   width="16px"
   height="16px"
   viewBox="0 0 16 16"
   enable-background="new 0 0 16 16"
   xml:space="preserve"
   sodipodi:docname="wcloud-view.svg"
   inkscape:version="1.1.2 (0a00cf5339, 2022-02-04)"
   xmlns:inkscape="http://www.inkscape.org/namespaces/inkscape"
   xmlns:sodipodi="http://sodipodi.sourceforge.net/DTD/sodipodi-0.dtd"
   xmlns="http://www.w3.org/2000/svg"
   xmlns:svg="http://www.w3.org/2000/svg"><defs
   id="defs41" /><sodipodi:namedview
   id="namedview39"
   pagecolor="#ffffff"
   bordercolor="#666666"
   borderopacity="1.0"
   inkscape:pageshadow="2"
   inkscape:pageopacity="0.0"
   inkscape:pagecheckerboard="0"
   showgrid="false"
   inkscape:zoom="13.640625"
   inkscape:cx="-51.463917"
   inkscape:cy="-15.578465"
   inkscape:window-width="2490"
   inkscape:window-height="1369"
   inkscape:window-x="0"
   inkscape:window-y="0"
   inkscape:window-maximized="1"
   inkscape:current-layer="layer1" />

<rect
   style="fill:#009ee0;fill-opacity:1;stroke:#009ee0;stroke-width:1.8035;stroke-opacity:1"
   id="rect1174"
   width="14.551487"
   height="14.245927"
   x="0.82357001"
   y="0.93811774" /><g
   inkscape:groupmode="layer"
   id="layer1"
   inkscape:label="Layer 1"><path
     d="M 10.839042,5.9438653 C 10.659613,4.0771556 8.9874068,2.6134082 6.9516046,2.6134082 c -2.1559742,0 -3.9033184,1.6400734 -3.9033184,3.663127 0,0.1965456 0.016591,0.3888598 0.048357,0.5767068 v 0 C 1.7408633,7.011935 0.68823837,8.185096 0.68823837,9.608403 c 0,1.531456 1.21901463,2.772793 2.72269723,2.772793 h 9.9803874 c 1.094105,0 1.980812,-0.785005 1.980812,-1.754332 0,-0.876224 -0.725057,-1.601984 -1.67268,-1.732937 v 0 c 0,-1.531925 -1.357202,-2.9500617 -2.86041,-2.9500617 -0.0486,0 0.04716,-0.00261 0,0 -0.796403,0.04231 -1.5020242,0.4328243 -1.9732283,1.0252817"
     fill="none"
     stroke="#231f20"
     stroke-linecap="round"
     stroke-linejoin="round"
     stroke-miterlimit="10"
     stroke-width="0.472122"
     id="path2-3"
     style="fill:none;fill-opacity:1;stroke:#ffffff;stroke-opacity:1" /></g></svg>
